<?xml version="1.0" encoding="UTF-8"?>
<svg id="Layer_2" data-name="Layer 2" xmlns="http://www.w3.org/2000/svg" viewBox="0 0 244.58 244.58">
  <defs>
    <style>
      .cls-1, .cls-2 {
        fill: #fff;
      }

      .cls-3 {
        fill: #8e6243;
      }

      .cls-3, .cls-4 {
        stroke-width: 6px;
      }

      .cls-3, .cls-4, .cls-5, .cls-6, .cls-7, .cls-8 {
        stroke-miterlimit: 10;
      }

      .cls-3, .cls-4, .cls-8, .cls-2 {
        stroke: #231f20;
      }

      .cls-4 {
        fill: #84421d;
      }

      .cls-5 {
        fill: #db9d2a;
      }

      .cls-5, .cls-6, .cls-7 {
        stroke: #000;
      }

      .cls-5, .cls-7, .cls-8, .cls-2 {
        stroke-width: 2px;
      }

      .cls-6 {
        fill: #3a3a3a;
        stroke-width: 5px;
      }

      .cls-7 {
        fill: #b22028;
      }

      .cls-8 {
        fill: #331d10;
      }

      .cls-2 {
        stroke-linecap: round;
        stroke-linejoin: round;
      }

      .cls-9 {
        fill: #231f20;
      }
    </style>
  </defs>
  <g id="Merchandise">
    <g id="Beaver">
      <circle id="Outer_circle" data-name="Outer circle" class="cls-5" cx="122.29" cy="122.29" r="121.29"/>
      <circle id="Skateboards_text" data-name="Skateboards text" class="cls-7" cx="122.29" cy="122.29" r="76.5" transform="translate(-1.51 1.53) rotate(-.71)"/>
      <g>
        <path class="cls-9" d="m54.67,30.54c1.24-1.14,3.92-3.1,6.6-4.74,3.27-2,5.47-2.91,7.82-2.96,2.2-.13,4.35.77,5.68,2.94,1.28,2.08,1.26,4.8-.81,7.42l.05.09c3.14-.95,6.41-.11,8.27,2.92,1.33,2.17,1.37,4.47.61,6.54-.88,2.46-3.28,4.97-8,7.86-2.64,1.62-4.7,2.64-6,3.19l-14.24-23.27Zm10.86,5.82l1.74-1.06c2.84-1.74,3.6-3.82,2.52-5.58-1.1-1.8-3.05-1.91-5.47-.43-1.17.72-1.79,1.2-2.17,1.55l3.38,5.52Zm6.42,10.48c.57-.23,1.21-.61,2.11-1.16,2.43-1.49,4-3.74,2.47-6.23-1.45-2.37-4.16-2.02-6.83-.39l-1.83,1.12,4.08,6.66Z"/>
        <path class="cls-9" d="m91.38,33.16c.95,2.43,3.77,2.85,6.57,1.98,2.03-.63,3.6-1.41,5.05-2.46l2.06,3.8c-1.74,1.43-4.02,2.58-6.6,3.38-6.53,2.02-11.45-.61-13.32-6.62-1.52-4.9-.14-11.26,6.52-13.32,6.24-1.94,10.11,2.19,11.59,6.95.32,1.04.49,1.96.52,2.44l-12.39,3.84Zm5.76-6.28c-.44-1.45-1.85-3.71-4.57-2.86-2.53.79-2.84,3.41-2.51,5.06l7.08-2.2Z"/>
        <path class="cls-9" d="m120.05,35.88l-.51-1.97h-.13c-1.2,1.71-3.19,2.7-5.57,2.87-4.1.29-6.71-2.48-6.94-5.69-.37-5.24,4.14-8.06,11.26-8.56l-.02-.26c-.08-1.07-.76-2.56-3.87-2.33-2.05.15-4.16,1-5.44,1.9l-1.44-3.92c1.34-.9,4.02-2.1,7.69-2.36,6.7-.48,9.1,3.33,9.44,8.06l.5,7.02c.14,1.92.37,3.74.67,4.85l-5.63.4Zm-1.44-9.46c-3.29.22-5.78,1.19-5.61,3.59.12,1.62,1.23,2.33,2.65,2.23,1.53-.11,2.75-1.22,3.07-2.54.07-.33.07-.72.04-1.08l-.16-2.2Z"/>
        <path class="cls-9" d="m136.02,16.39l1.27,9.68c.23,1.76.33,3.38.4,5.02l.13.02c.56-1.6,1.13-3.04,1.84-4.68l3.97-8.88,6.52.99-10.46,18.81-6.19-.94-4.21-21.05,6.72,1.03Z"/>
        <path class="cls-9" d="m155.29,33.19c-.78,2.49,1.16,4.58,3.88,5.66,1.97.78,3.69,1.15,5.48,1.24l-.77,4.26c-2.25.03-4.75-.5-7.27-1.49-6.36-2.5-8.55-7.65-6.25-13.49,1.88-4.77,6.93-8.87,13.42-6.31,6.08,2.4,6.52,8.03,4.69,12.67-.4,1.02-.85,1.84-1.12,2.23l-12.06-4.75Zm8.42-1.3c.56-1.4.88-4.05-1.77-5.09-2.47-.97-4.35.89-5.12,2.38l6.9,2.72Z"/>
        <path class="cls-9" d="m173.91,35.67c1.6-2.49,2.62-4.16,3.46-5.68l4.53,2.92-1.83,3.26.13.08c2.47-1.92,5.2-1.63,6.84-.57.49.31.73.48,1.06.82l-3.19,4.96c-.35-.35-.74-.68-1.33-1.07-1.94-1.25-3.92-1.07-5.34.35-.28.29-.58.68-.85,1.11l-5.53,8.58-5.28-3.4,7.32-11.37Z"/>
      </g>
      <path class="cls-4" d="m82.02,81.55l-10.16-15.59c-.79-2.31,2.21-9.11,8.55-11.28h0c6.34-2.17,12.28,1.88,13.07,4.19l4.78,13.97"/>
      <path class="cls-4" d="m149.13,74.23l8.01-16.8c1.56-1.87,8.93-2.86,14.09,1.43h0c5.16,4.29,4.79,11.47,3.24,13.34l-9.43,11.36"/>
      <path class="cls-3" d="m170.94,100.93c0-15.7-17.47-27.42-32.69-27.42h-32.03c-15.23,0-32.69,11.72-32.69,27.42l-4.58,56.75c0,15.7,12.34,28.43,27.57,28.43h51.43c15.23,0,27.57-12.73,27.57-28.43l-4.58-56.75Z"/>
      <polygon class="cls-2" points="123.6 202.08 114.08 202.08 109.96 172.04 123.6 172.04 123.6 202.08"/>
      <polygon class="cls-2" points="123.6 202.08 133.11 202.08 137.24 172.04 123.6 172.04 123.6 202.08"/>
      <g>
        <path class="cls-8" d="m121.46,135.4l14.31.26c7.11-.24,9.38,2.14,10.45,8.43l2.2,18.32s0,.08,0,.12c-.03,7.14-5.04,13.41-12.19,13.41h-13.77"/>
        <path class="cls-8" d="m123.97,135.4l-14.31.26c-7.11-.24-9.38,2.14-10.45,8.43l-2.2,18.32s0,.08,0,.12c.03,7.14,5.04,13.41,12.19,13.41h13.77"/>
      </g>
      <g>
        <ellipse class="cls-6" cx="98.4" cy="110.65" rx="15.82" ry="19.89"/>
        <path class="cls-1" d="m105.57,112.24l-5.19,10.34.03.15c1.57-2.25,4.94-3.35,7.17-2.24.02,0,.21-.05.23-.03-.03-.02-.14-.16-.18-.18-2.61-1.31-3.68-4.73-2.03-8.02l-.04-.02Z"/>
        <path class="cls-1" d="m90.35,99.41c.55-2.1,2.48-4.25,4.24-4.02,2.3.3,4.38,4.67,2.72,7.39-1.06,1.73-3.7,2.92-5.54,1.85-1.83-1.06-1.8-3.74-1.41-5.21Z"/>
        <path class="cls-1" d="m91.61,108.2c.62,1,.08,2.81-.96,3.07-.78.19-1.53-.56-1.63-.66-.05-.06-.76-.82-.59-1.85.03-.18.1-.61.44-.96.5-.51,1.3-.5,1.85-.3.13.05.6.23.89.7Z"/>
        <path class="cls-1" d="m105.62,112.26l-5.19,10.34-.14.06c.87-2.61-.26-5.97-2.49-7.09-.02-.01-.09-.2-.11-.21.03.02.22.01.25.03,2.61,1.31,5.99.12,7.64-3.16l.05.02Z"/>
      </g>
      <g>
        <ellipse class="cls-6" cx="144.89" cy="111.3" rx="15.82" ry="19.89"/>
        <path class="cls-1" d="m152.06,112.88l-5.19,10.34.04.15c1.57-2.26,4.95-3.36,7.17-2.24.02,0,.2-.04.23-.04-.04-.02-.14-.16-.17-.18-2.61-1.31-3.68-4.74-2.03-8.02l-.05-.02Z"/>
        <path class="cls-1" d="m136.84,100.05c.55-2.1,2.48-4.25,4.24-4.02,2.3.3,4.38,4.67,2.72,7.39-1.06,1.73-3.7,2.92-5.54,1.85-1.83-1.06-1.8-3.74-1.41-5.21Z"/>
        <path class="cls-1" d="m138.1,108.84c.62,1,.08,2.81-.96,3.07-.78.19-1.53-.56-1.63-.66-.05-.06-.76-.82-.59-1.85.03-.18.1-.61.44-.96.5-.51,1.3-.5,1.85-.3.13.05.6.23.89.7Z"/>
        <path class="cls-1" d="m152.1,112.91l-5.19,10.34-.14.06c.87-2.61-.27-5.97-2.49-7.09-.02,0-.09-.19-.11-.21.04.02.21.02.25.03,2.61,1.31,6,.12,7.64-3.16l.04.02Z"/>
      </g>
      <g>
        <path class="cls-9" d="m23.43,161.43c-.12,1.43.26,4.16,1.1,5.97.87,1.88,1.82,2.42,2.75,1.99.95-.44,1.11-1.29.76-3.92-.66-4.74.69-7.27,2.85-8.24,3.44-1.58,7.49.4,9.78,5.38,1.08,2.35,1.53,4.65,1.53,6.14l-4.42.72c.02-1.1-.18-3.12-.97-4.82-.7-1.52-1.65-2.14-2.58-1.71-.88.4-.98,1.41-.62,4.23.57,4.35-.49,6.76-3.15,8.02-3.42,1.57-7.28-.18-9.92-5.93-1.2-2.61-1.74-5.21-1.7-7.08l4.59-.74Z"/>
        <path class="cls-9" d="m42.01,182.15l.06.07c.99-.12,1.97-.21,2.89-.25l7.56-.25,5.08,6.46-11.32-1.16-3.84,14.51-5.21-6.62,3.22-9.32-2.65-.13-4.94,3.89-4.24-5.39,23-18.09,4.24,5.39-13.84,10.89Z"/>
        <path class="cls-9" d="m56.62,212.81l.91-1.83-.12-.09c-2.12.38-4.42-.33-6.48-1.93-3.55-2.76-3.82-6.71-1.85-9.25,3.23-4.15,8.82-2.96,14.97,1.84l.16-.2c.66-.85,1.1-2.44-1.59-4.53-1.78-1.38-4.07-2.28-5.73-2.54l1.47-3.94c1.71.31,4.7,1.36,7.88,3.84,5.8,4.51,5.2,9.07,2.29,12.81l-4.32,5.55c-1.18,1.52-2.21,3.03-2.72,4.07l-4.88-3.79Zm5.2-8.04c-2.84-2.23-5.53-3.31-7-1.42-1,1.28-.56,2.62.67,3.58,1.33,1.03,3.08,1.09,4.22.35.28-.19.54-.49.76-.77l1.35-1.74Z"/>
        <path class="cls-9" d="m86.35,200.49l-2.61,5.13,4.4,2.24-2.1,4.12-4.4-2.24-3.32,6.51c-1.1,2.17-1.02,3.47.8,4.4.79.4,1.44.64,1.9.76l-2.11,4.27c-.92-.14-2.49-.67-4.21-1.54-1.98-1.01-3.3-2.47-3.81-3.91-.59-1.64-.28-3.64,1.02-6.19l3.74-7.35-2.61-1.33,2.1-4.12,2.61,1.33,1.97-3.86,6.62,1.78Z"/>
        <path class="cls-9" d="m92.08,222.1c-.51,2.56,1.86,4.51,4.94,5.38,2.23.63,4.14.87,6.08.83l-.26,4.33c-2.43.2-5.19-.14-8.04-.94-7.19-2.03-10.24-7.02-8.54-13.07,1.39-4.93,6.3-9.43,13.63-7.36,6.88,1.94,8.1,7.57,6.75,12.37-.3,1.05-.67,1.91-.91,2.32l-13.65-3.85Zm8.92-1.95c.42-1.45.41-4.13-2.59-4.98-2.79-.79-4.58,1.22-5.21,2.78l7.8,2.2Z"/>
        <path class="cls-9" d="m110.46,235.08c.16-1.33.37-3.72.48-6.01l1.16-23.2,6.85.34-.57,11.48h.09c1.39-1.66,3.74-2.67,6.79-2.52,5.3.26,8.95,4.45,8.59,10.62-.36,7.25-5.58,10.63-10.62,10.38-2.58-.13-5.01-1.12-6.43-3.59h-.09s-.43,2.79-.43,2.79l-5.82-.29Zm7.46-8.2c-.02.4,0,.78.07,1.11.37,1.69,1.88,3.08,3.88,3.18,2.91.14,4.83-1.84,5.01-5.46.16-3.13-1.25-5.68-4.43-5.84-1.89-.09-3.65,1.09-4.18,2.89-.1.35-.18.75-.2,1.15l-.15,2.97Z"/>
        <path class="cls-9" d="m160.26,220.81c1.53,7.21-3.35,11.69-9.14,12.93-6.28,1.34-11.95-1.42-13.31-7.79-1.36-6.36,2.37-11.43,9.3-12.91,6.6-1.41,11.87,1.81,13.14,7.77Zm-15.56,3.53c.72,3.37,2.82,5.59,5.68,4.98,2.62-.56,3.76-3.3,3-6.86-.62-2.91-2.48-5.64-5.52-4.99-3.2.68-3.78,3.95-3.16,6.87Z"/>
        <path class="cls-9" d="m180.77,222.4l-1.27-1.61-.13.07c-.56,2.08-2.19,3.86-4.52,5.04-4.01,2.03-7.7.59-9.15-2.29-2.37-4.69,1.09-9.23,8.07-12.74l-.12-.23c-.48-.96-1.74-2.04-4.78-.5-2.01,1.01-3.8,2.7-4.75,4.09l-2.94-3.01c1.01-1.41,3.24-3.66,6.84-5.48,6.56-3.31,10.42-.82,12.56,3.41l3.17,6.28c.87,1.72,1.79,3.3,2.52,4.2l-5.51,2.79Zm-5.05-8.14c-3.23,1.61-5.36,3.58-4.28,5.72.73,1.45,2.13,1.63,3.52.93,1.5-.76,2.3-2.31,2.12-3.67-.05-.34-.21-.7-.37-1.01l-1-1.97Z"/>
        <path class="cls-9" d="m184.13,204.46c-1.9-2.27-3.2-3.73-4.41-4.98l4.52-3.79,2.59,2.7.13-.11c-1.03-2.99.23-5.66,1.87-7.04.49-.41.74-.6,1.2-.85l3.79,4.52c-.47.26-.94.56-1.53,1.06-1.93,1.62-2.46,3.66-1.56,5.46.19.36.47.76.8,1.15l6.56,7.82-5.26,4.42-8.69-10.36Z"/>
        <path class="cls-9" d="m196.25,167.18l19.07,13.27c1.88,1.31,3.88,2.6,5.05,3.29l-3.48,5.01-2.59-1.45-.05.08c1.06,2.43.48,5.28-1.15,7.62-2.97,4.27-8.73,5.4-13.88,1.82-5.58-3.84-6.16-9.92-3.16-14.23,1.56-2.24,3.48-3.45,5.18-3.46l.05-.07-8.96-6.23,3.92-5.63Zm10.57,15.71c-.29-.2-.64-.43-.98-.58-1.61-.64-3.59-.2-4.79,1.52-1.8,2.58-.61,5.34,2,7.16,2.79,1.94,5.59,1.66,7.22-.69,1.11-1.6,1.01-3.62-.2-4.97-.29-.34-.67-.64-1.08-.93l-2.17-1.51Z"/>
        <path class="cls-9" d="m218.86,173.21c1.05-.98,2.61-3.25,3.21-5.15.63-1.97.29-3.01-.69-3.32-1-.32-1.69.2-3.2,2.38-2.71,3.95-5.4,4.91-7.65,4.17-3.61-1.15-5.26-5.34-3.6-10.56.78-2.46,2-4.47,3-5.57l3.75,2.45c-.75.8-1.97,2.43-2.53,4.21-.51,1.6-.22,2.69.75,3,.92.29,1.67-.39,3.3-2.71,2.51-3.6,4.91-4.67,7.72-3.81,3.59,1.14,5.26,5.04,3.34,11.07-.87,2.74-2.22,5.02-3.52,6.38l-3.89-2.54Z"/>
      </g>
    </g>
  </g>
</svg>