<?xml version="1.0" encoding="UTF-8"?>
<svg id="Layer_2" data-name="Layer 2" xmlns="http://www.w3.org/2000/svg" viewBox="0 0 330.4 46.17">
  <defs>
    <style>
      .cls-1 {
        fill: #db9d2a;
      }

      .cls-2 {
        fill: #231f20;
      }
    </style>
  </defs>
  <g id="Merchandise">
    <g id="BSkatebordsCup">
      <g>
        <g>
          <g>
            <g>
              <path class="cls-1" d="m15.05,35.62l-5.53-1.26c2.14-9.42,4.91-18.8,8.22-27.88l5.33,1.94c-3.23,8.86-5.93,18-8.02,27.19Z"/>
              <path class="cls-2" d="m15.21,35.01l-5.53-1.26.44.77c2.16-9.45,4.91-18.76,8.22-27.88l-.77.44c1.78.65,3.55,1.3,5.33,1.94l-.44-.77c-3.23,8.89-5.91,17.97-8.02,27.19-.18.78,1.03,1.12,1.21.33,2.11-9.22,4.79-18.3,8.02-27.19.12-.34-.14-.66-.44-.77-1.78-.65-3.55-1.3-5.33-1.94-.34-.12-.66.14-.77.44-3.31,9.11-6.06,18.42-8.22,27.88-.07.32.1.69.44.77l5.53,1.26c.78.18,1.12-1.03.33-1.21Z"/>
            </g>
            <g>
              <path class="cls-1" d="m3.02,43.13l-2.41-5.13c6.77-3.17,13.76-6.45,20.55-9.94,2.17-1.11,4.07-2.15,5.44-3.58.14-.14.24-.27.32-.38-.31-.11-.8-.23-1.52-.28-2.45-.17-4.93-.19-7.37-.06l-8.67.45,6.73-5.48c3.46-2.82,6.41-6.15,8.79-9.91-4.68.79-9.2,2.64-13.05,5.39l-3.3-4.61c5.83-4.17,13-6.6,20.17-6.85l2.12-.07.67,2.01c.88,2.66-.55,5.06-1.16,6.09-1.56,2.63-3.36,5.08-5.39,7.33.29.02.57.03.85.05,5.53.38,6.68,3.47,6.92,4.77.24,1.29.08,3.29-2.03,5.47-2.14,2.22-4.91,3.64-6.93,4.69-6.88,3.54-13.92,6.84-20.74,10.03Z"/>
              <path class="cls-2" d="m3.56,42.82l-2.41-5.13-.22.86c4.83-2.26,9.66-4.53,14.44-6.88,2.31-1.14,4.63-2.28,6.91-3.48,1.8-.95,3.79-2.01,5.09-3.64.29-.37.21-.89-.28-1.04-2.39-.77-5.36-.49-7.83-.42-1.04.03-2.08.1-3.12.15-2.26.12-4.52.23-6.77.35l.44,1.07,6.04-4.92c3.74-3.04,6.97-6.52,9.57-10.6.32-.5-.21-1.01-.71-.92-4.75.83-9.25,2.68-13.2,5.45l.86.22-3.3-4.61-.22.86c3.68-2.59,7.77-4.51,12.13-5.64,3.25-.84,6.51-1.09,9.84-1.2l-.6-.46c.22.66.46,1.31.66,1.98.46,1.59.22,3.1-.49,4.56-1.46,3.02-3.67,5.79-5.89,8.28-.37.41-.11,1.03.44,1.07,2.72.16,6.06.81,7.02,3.77,1.13,3.5-2.34,6.38-4.93,8.04-3.58,2.29-7.56,4.04-11.38,5.89-4.3,2.09-8.62,4.12-12.95,6.15-.73.34-.09,1.42.63,1.08,7.55-3.54,15.22-6.95,22.53-10.98,3.93-2.16,9.9-6.79,6.68-11.85-1.64-2.59-4.76-3.18-7.61-3.35l.44,1.07c2.39-2.69,4.92-5.76,6.34-9.1,1.05-2.47.5-4.54-.29-6.94-.08-.26-.32-.47-.6-.46-3.44.12-6.82.38-10.17,1.25-4.45,1.15-8.67,3.11-12.43,5.76-.26.18-.43.56-.22.86l3.3,4.61c.18.26.56.43.86.22,3.87-2.72,8.24-4.51,12.9-5.33l-.71-.92c-2.58,4.04-5.8,7.43-9.5,10.44l-5.92,4.81c-.42.34-.07,1.09.44,1.07,2.19-.11,4.38-.23,6.56-.34.78-.04,1.56-.08,2.35-.12,1.47-.07,2.95-.09,4.43-.05,1.32.03,2.78-.03,4.06.38l-.28-1.04c-1.33,1.66-3.38,2.68-5.24,3.65-2.3,1.2-4.62,2.35-6.95,3.49-4.64,2.27-9.32,4.47-14,6.66-.32.15-.36.57-.22.86l2.41,5.13c.34.73,1.42.09,1.08-.63Z"/>
            </g>
          </g>
          <g>
            <path class="cls-1" d="m32.59,37.25l-4.6-3.09c1.53-3.79,3.36-7.47,5.14-11.03,2.76-5.53,5.37-10.76,6.93-16.39-.13-.48-.26-.96-.38-1.44l-1.17-4.68,4.66,1.26c1.97.53,3.02,2.4,2.74,4.69,1.37,4.56,3.32,8.93,5.79,13.01l2.35,3.88-4.52.41c-4.04.37-8,1.27-11.79,2.69-.19.38-.37.75-.56,1.13,3.11-1.22,6.45-1.86,9.82-1.8.39,0,1.29.02,2.19.58,2.28,1.43,1.65,3.97,1.45,4.81-.03.14-.08.28-.09.41.04-.3-.11-1.09-.81-1.61l-3.38,4.55c-1.16-.86-1.46-2.01-1.46-2.99-4.61.41-8.99,2.4-12.3,5.61Zm10.49-21.99c-.6,1.46-1.24,2.89-1.91,4.31,1.19-.3,2.39-.56,3.6-.77-.6-1.16-1.16-2.35-1.69-3.54Z"/>
            <g>
              <path class="cls-2" d="m32.91,36.71c-1.53-1.03-3.07-2.06-4.6-3.09l.29.71c2.9-7.13,6.84-13.79,9.78-20.9.71-1.7,1.35-3.43,1.9-5.2.24-.79.46-1.33.26-2.14-.1-.4-.21-.8-.31-1.2-.37-1.48-.74-2.96-1.1-4.44l-.77.77c1.5.41,3.03.77,4.52,1.22,1.27.39,2.14,1.24,2.39,2.59.17.92.02,1.65.31,2.56s.61,1.83.95,2.74c1.8,4.78,4.36,9.11,7,13.45l.54-.94c-1.89.17-3.79.31-5.68.53-2.22.26-4.42.67-6.57,1.24-1.13.3-2.24.64-3.34,1.03-1.16.41-1.26.63-1.81,1.74-.22.44.15,1.13.71.92,3.07-1.18,6.44-1.94,9.75-1.77,1.44.07,2.77.86,3.08,2.35.19.9-.04,1.78-.24,2.66l1.23.17c.02-.82-.39-1.52-.99-2.06-.33-.29-.73-.21-.98.13-1.13,1.52-2.26,3.03-3.38,4.55l.98-.13c-.84-.69-1.24-1.46-1.28-2.55-.01-.31-.28-.66-.62-.62-4.8.48-9.23,2.46-12.74,5.79-.58.56.3,1.44.88.88,3.25-3.09,7.39-4.98,11.85-5.42l-.62-.62c.05,1.4.56,2.53,1.65,3.43.34.28.73.22.98-.13,1.13-1.52,2.26-3.03,3.38-4.55l-.98.13c.36.32.64.68.63,1.17-.02.7,1.07.86,1.23.17.56-2.5.43-5.2-2.36-6.27-1.64-.63-3.74-.33-5.44-.11-2.17.28-4.29.83-6.33,1.62l.71.92c.32-.64.41-.87,1.07-1.16.41-.18.9-.31,1.33-.44,1.04-.33,2.09-.62,3.14-.87,2.07-.49,4.17-.83,6.28-1.03,1.5-.14,3.01-.27,4.51-.41.45-.04.8-.5.54-.94-2.97-4.9-5.8-9.78-7.61-15.26-.49-1.48-.23-3.11-.99-4.51-.58-1.07-1.53-1.76-2.67-2.11-1.53-.47-3.1-.84-4.64-1.25-.47-.13-.88.31-.77.77.36,1.44.71,2.87,1.07,4.31.07.28.15.57.21.85.22.96-.05,1.7-.34,2.61-.6,1.85-1.31,3.67-2.08,5.46-2.92,6.76-6.62,13.15-9.39,19.98-.11.26.08.56.29.71,1.53,1.03,3.07,2.06,4.6,3.09.67.45,1.3-.63.63-1.08Z"/>
              <path class="cls-2" d="m42.48,15.09c-.58,1.4-1.2,2.79-1.84,4.16-.23.48.15,1.06.71.92,1.19-.3,2.39-.55,3.6-.77.42-.07.54-.59.37-.92-.6-1.16-1.16-2.35-1.69-3.54-.14-.31-.59-.38-.86-.22-.32.19-.36.54-.22.86.53,1.2,1.09,2.38,1.69,3.54l.37-.92c-1.21.21-2.41.47-3.6.77l.71.92c.69-1.47,1.35-2.96,1.97-4.46.13-.31-.14-.69-.44-.77-.36-.1-.64.12-.77.44Z"/>
            </g>
          </g>
          <g>
            <path class="cls-1" d="m55.38,37.68c-.9,0-1.78-.23-2.54-.68-2.68-1.57-2.46-4.55-2.39-5.54.47-6.57,2.04-12.96,4.66-19,1.6-3.69,3.92-4.28,5.58-4.12,1.27.12,2.44.75,3.29,1.77.57.68.89,1.41,1.07,2.1h.02c0,.06.01.12.02.18.16.68.2,1.32.23,1.83,0,.17.02.33.03.49.14,1.34.26,2.7.31,4.08.82,5.14,2.41,10.55,3.92,14.61l-5.31,1.97c-.41-1.1-.83-2.3-1.23-3.57-.72,1.28-1.64,2.51-2.8,3.63-.57.54-2.29,2.2-4.79,2.23-.03,0-.05,0-.08,0Zm4.26-21.34c-1.92,4.87-3.1,9.97-3.51,15.19.06-.05.12-.11.19-.17,1.91-1.83,3.17-4.72,3.57-8.14.15-1.29.18-2.62.13-3.96-.15-.98-.28-1.96-.37-2.92Z"/>
            <g>
              <path class="cls-2" d="m55.38,37.06c-3.13-.12-4.48-2.64-4.32-5.46.23-3.86.94-7.71,1.97-11.43.51-1.83,1.11-3.64,1.8-5.42.64-1.65,1.27-3.46,2.61-4.69,2.48-2.28,6.1-.74,7.01,2.32.07.25.33.48.6.46h.02c-.21-.21-.42-.42-.62-.63.41,3.57.58,7.11,1.36,10.63s1.88,7.23,3.17,10.73l.44-.77c-1.77.66-3.54,1.32-5.31,1.97l.77.44c-.44-1.18-.84-2.37-1.23-3.57-.16-.5-.86-.63-1.14-.15-1.49,2.56-3.87,5.51-7.12,5.55-.8.01-.81,1.26,0,1.25,3.73-.05,6.47-3.2,8.2-6.17l-1.14-.15c.39,1.2.8,2.39,1.23,3.57.11.3.43.56.77.44,1.77-.66,3.54-1.32,5.31-1.97.3-.11.56-.43.44-.77-1.24-3.35-2.27-6.79-3.06-10.27s-1.01-7.15-1.42-10.75c-.04-.31-.26-.66-.62-.62h-.02c.2.15.4.31.6.46-.79-2.66-3.19-4.66-6.05-4.32-2.56.3-4.16,2.4-5.12,4.62-1.57,3.61-2.76,7.39-3.57,11.24-.61,2.95-1.34,6.27-1.11,9.31s2.47,5.28,5.57,5.39c.8.03.8-1.22,0-1.25Z"/>
              <path class="cls-2" d="m59.03,16.18c-1.93,4.92-3.11,10.09-3.54,15.36-.05.57.7.78,1.07.44,1.83-1.7,2.95-4.03,3.53-6.44.34-1.4.5-2.84.54-4.28.05-1.67-.21-3.26-.38-4.92-.08-.79-1.33-.8-1.25,0,.15,1.45.41,2.88.39,4.35s-.13,2.87-.45,4.27c-.52,2.3-1.52,4.51-3.27,6.13l1.07.44c.42-5.16,1.6-10.21,3.49-15.03.29-.75-.91-1.07-1.21-.33Z"/>
            </g>
          </g>
          <g>
            <path class="cls-1" d="m85.74,45.52l-6.74-8.19c-5.75-7-10.16-14.89-13.1-23.46-.29-.58-.92-1.96-.38-3.54.27-.77.91-1.84,2.46-2.56l2.38,5.15c.47-.28.76-1.19.55-1.71.02.05.04.09.06.12.12.23.2.43.24.56,1.65,4.84,3.8,9.45,6.44,13.78.11-4.79.83-9.57,2.16-14.15.12-.43.42-1.46,1.35-2.24,1.24-1.04,2.69-.92,3.31-.87,2.82.22,5.67.12,8.48-.31.32-.05.43-.09.44-.09-.09.04-.39.23-.58.62-.34.7-.34,1.72.48,2.33.83.62,2.06.54,2.86-.19l-3.84-4.17c1.22-1.12,3.01-1.19,4.37-.18,1.47,1.1,2,3.12,1.22,4.71-1.04,2.12-3.34,2.47-4.1,2.59-2.92.45-5.89.59-8.84.43-1.81,6.79-2.15,14-.98,20.93l1.76,10.46Zm-19.89-31.8s0,0,0,0c0,0,0,0,0,0Z"/>
            <g>
              <path class="cls-2" d="m86.18,45.08l-6.42-7.8c-4.46-5.42-8.2-11.39-11.03-17.83-.88-2-1.59-4.05-2.39-6.08-.86-2.18-.13-4.01,1.95-5.06l-.86-.22c.79,1.72,1.59,3.43,2.38,5.15.18.4.7.36.98.13.68-.56.92-1.48.71-2.32l-1.14.48c.55,1.1.88,2.34,1.32,3.49.48,1.23,1,2.45,1.55,3.66,1.14,2.51,2.44,4.94,3.87,7.31.32.54,1.15.3,1.16-.32.07-2.66.3-5.31.75-7.93.21-1.26.47-2.51.77-3.75.25-1.03.44-2.19.93-3.15,1.2-2.36,3.72-1.75,5.86-1.7s4.81.09,6.97-.54l-.48-1.14c-1.22.74-1.45,2.54-.54,3.62,1.07,1.27,2.87,1.05,4.06.12.27-.21.21-.66,0-.88-1.28-1.39-2.56-2.78-3.84-4.17v.88c1.75-1.44,4.25-.41,4.78,1.72.43,1.7-.62,3.23-2.15,3.89-1.23.54-2.7.62-4.02.74-2.13.2-4.26.23-6.39.12-.27-.01-.54.2-.6.46-1.86,7.14-2.12,14.5-.9,21.77l1.67,9.96c.13.79,1.34.46,1.21-.33-.54-3.24-1.09-6.47-1.63-9.71-1.2-7.14-.97-14.34.86-21.35l-.6.46c3.04.16,6.13.04,9.13-.47,1.72-.29,3.39-1.1,4.25-2.69,2.21-4.08-2.87-8.44-6.49-5.45-.27.22-.21.65,0,.88,1.28,1.39,2.56,2.78,3.84,4.17v-.88c-.63.5-1.38.59-1.99.07-.53-.45-.77-1.38,0-1.84.6-.36.21-1.34-.48-1.14-2.62.76-5.83.59-8.52.4-1.95-.13-3.83.34-4.9,2.13-.47.78-.68,1.69-.91,2.57-.39,1.46-.72,2.94-.98,4.43-.51,2.89-.8,5.8-.88,8.73l1.16-.32c-1.43-2.36-2.73-4.79-3.87-7.31-1.06-2.33-1.73-4.87-2.87-7.15-.32-.65-1.31-.19-1.14.48.11.44-.05.83-.39,1.1l.98.13c-.79-1.72-1.59-3.43-2.38-5.15-.15-.32-.58-.36-.86-.22-1.24.63-2.3,1.58-2.75,2.93-.59,1.77.15,3.27.74,4.9,1.46,4.08,3.27,8.04,5.41,11.81,2.96,5.24,6.66,9.88,10.47,14.5l3.76,4.58c.51.62,1.39-.27.88-.88Z"/>
              <path class="cls-2" d="m65.31,14.04h0c.04.08.09.14.16.18.06.06.13.09.21.11.08.03.17.03.25.01.08,0,.16-.03.23-.07l.13-.1c.08-.08.13-.17.16-.28l.02-.17c0-.11-.03-.22-.09-.32h0c-.04-.08-.09-.14-.16-.18-.06-.06-.13-.09-.21-.11-.08-.03-.17-.03-.25-.01-.08,0-.16.03-.23.07l-.13.1c-.08.08-.13.17-.16.28l-.02.17c0,.11.03.22.09.32h0c.04.08.09.14.16.18.06.06.13.09.21.11.08.03.17.03.25.01.08,0,.16-.03.23-.07l.13-.1c.08-.08.13-.17.16-.28l.02-.17c0-.11-.03-.22-.09-.32h0c-.04-.08-.09-.14-.16-.18-.06-.06-.13-.09-.21-.11-.08-.03-.17-.03-.25-.01-.08,0-.16.03-.23.07l-.13.1c-.08.08-.13.17-.16.28l-.02.17c0,.11.03.22.09.32Z"/>
            </g>
          </g>
          <g>
            <path class="cls-1" d="m98.61,45.3l-5.16-7.9c-.73-1.12-.86-2.39-.45-3.63l.04-7.72c-.17-.28-.29-.6-.37-.93-.19-.84-.05-1.75.39-2.58l.07-13.56c0-1.21.42-2.18,1.22-2.85.79-.66,1.78-.9,2.95-.72,3.49.55,6.88,1.6,10.06,3.14l3.27,1.58-11.92,14.32-.02,3.87c3.11-2.06,6.36-3.93,9.68-5.6.42-.21,1.55-.78,2.93-.42,1.08.29,1.96,1.13,2.32,2.19h.09s0,.29,0,.29c.27,1.14-.09,2.33-.95,3.11l-4.82,4.35.04-2.92c-3.14,1.73-6.16,3.63-9.03,5.69-.11.08-.21.16-.29.24l-.05,10.03Zm9.8-20.87l1.24.02-.68-.75c-.24.21-.42.46-.56.74Zm-9.62-12.94l-.02,4.04,2.72-3.27c-.89-.3-1.79-.56-2.7-.78Z"/>
            <g>
              <path class="cls-2" d="m99.15,44.99c-1.66-2.54-3.34-5.06-4.97-7.62-.06-.09-.13-.19-.18-.28-.67-1.13-.53-1.93-.39-3.15.05-.44.03-.89.03-1.33l.03-5.57c0-.44.05-.88-.08-1.3-.15-.48-.36-.81-.37-1.34,0-.59.24-.99.38-1.53.04-.15.07-.28.09-.43.15-1.3.01-2.69.02-4,.02-3.13-.09-6.29.05-9.42.11-2.43,1.87-3.25,4.06-2.87s4.19.93,6.2,1.68c2.16.8,4.22,1.86,6.3,2.86l-.13-.98c-1.88,2.26-3.76,4.52-5.64,6.78l-4.04,4.86c-.71.85-1.59,1.69-2.19,2.63-.32.5-.23,1.02-.23,1.61v2.76c-.02.46.53.8.93.54,2.34-1.54,4.74-2.98,7.21-4.31,2.07-1.11,5.51-3.18,6.81.11.1.26.31.46.6.46h.09c-.21-.21-.42-.42-.62-.62-.01,1.26.08,2.14-.91,3.09-.5.48-1.03.93-1.54,1.39l-3.14,2.84,1.07.44.04-2.92c0-.48-.53-.76-.94-.54-2.98,1.65-5.89,3.44-8.66,5.43-.52.37-.92.6-.98,1.24-.05.53,0,1.08,0,1.61-.01,2.74-.03,5.48-.04,8.23,0,.8,1.25.81,1.25,0,.01-2.54.03-5.07.04-7.61v-1.77c.01-.81.01-.48.75-.89,1.33-.74,2.56-1.75,3.86-2.56,1.45-.91,2.92-1.77,4.42-2.6l-.94-.54-.04,2.92c0,.56.68.79,1.07.44l3.65-3.3c.43-.39.9-.77,1.3-1.19,1.09-1.15.99-2.26,1-3.71,0-.34-.29-.62-.62-.62h-.09c.2.15.4.3.6.46-1-2.52-3.59-3.34-6-2.23-3.43,1.58-6.7,3.61-9.85,5.68l.94.54v-2.18c.01-.44.07-.9.02-1.33-.07-.62.01.05-.15.04.12,0,.59-.71.67-.8l1.34-1.62c2.59-3.11,5.18-6.22,7.76-9.33l2.11-2.53c.24-.28.27-.79-.13-.98-1.76-.85-3.51-1.74-5.31-2.48-1.91-.79-3.89-1.41-5.91-1.86-1.53-.34-3.25-.82-4.76-.2-1.95.8-2.46,2.69-2.47,4.61l-.03,5.37-.03,6.09c0,.42.09.96,0,1.37-.08.35-.33.76-.4,1.17-.13.81,0,1.49.25,2.26.41,1.21.12,3.21.11,4.6v2.72c-.02,1.02-.36,1.91-.12,2.96.41,1.76,1.91,3.46,2.88,4.94s1.95,2.98,2.92,4.47c.44.67,1.52.05,1.08-.63Z"/>
              <path class="cls-2" d="m108.41,25.06c.36,0,.72,0,1.09.01h.16c.25,0,.48-.16.57-.38.1-.24.04-.49-.13-.68-.23-.25-.45-.5-.68-.75-.1-.11-.29-.19-.44-.18-.17,0-.32.07-.44.18-.27.24-.5.54-.66.86-.08.15-.11.32-.06.48.04.14.15.3.29.37.15.08.32.12.48.06.15-.05.3-.14.37-.29s.16-.28.26-.41l-.1.13c.09-.12.19-.23.3-.33h-.88c.23.25.45.5.68.75l.44-1.07c-.36,0-.72,0-1.09-.01h-.16c-.16,0-.33.07-.44.18s-.19.29-.18.44c.02.34.27.62.62.62Z"/>
              <path class="cls-2" d="m98.16,11.49c0,1.18-.01,2.36-.02,3.54v.51c0,.25.16.48.38.57.21.09.52.06.68-.13.79-.95,1.59-1.9,2.38-2.86l.34-.41c.31-.37.19-.89-.28-1.04-.89-.3-1.79-.56-2.7-.78-.32-.08-.69.1-.77.44s.1.69.44.77c.91.22,1.81.48,2.7.78l-.28-1.04c-.79.95-1.59,1.9-2.38,2.86l-.34.41,1.07.44c0-1.18.01-2.36.02-3.54v-.51c0-.33-.29-.64-.62-.62s-.62.27-.62.62Z"/>
            </g>
          </g>
          <g>
            <path class="cls-1" d="m114.73,32.78l-5.66-.25c0-7.77.81-15.57,2.39-23.18l.61-2.92,2.88.75c.21.05.55.16.89.26.27.08.55.16.71.21l-.68,2.62,1.14.24c-.06.28-.12.56-.17.84,4.37.54,8.86.01,12.98-1.53.11-.09.19-.17.27-.24,1.03-.94,2.07-1.47,4.05-1.21l9.12,1.21-8.22,4.13c-5.47,2.75-11.7,3.92-17.8,3.37-1.21,5.15-2.06,10.42-2.51,15.68Z"/>
            <path class="cls-2" d="m114.73,32.16l-5.66-.25.62.62c.02-8.78,1.19-17.36,2.98-25.94l-.77.44c1.5.39,2.99.8,4.49,1.22l-.44-.77-.68,2.62c-.08.31.1.7.44.77l1.14.24-.44-.77c-.06.28-.12.56-.17.84-.09.43.18.74.6.79,3.68.43,7.41.16,10.99-.84.71-.2,1.68-.38,2.31-.77.57-.35.96-.88,1.6-1.15.87-.37,1.79-.29,2.7-.17,2.95.37,5.89.78,8.83,1.17l-.32-1.16c-2.57,1.29-5.14,2.58-7.71,3.88-5.61,2.82-11.73,4.06-18,3.54-.26-.02-.54.21-.6.46-1.22,5.22-2.06,10.51-2.54,15.85-.07.8,1.18.8,1.25,0,.47-5.23,1.3-10.41,2.49-15.52l-.6.46c6.39.53,12.7-.75,18.42-3.61,2.64-1.32,5.28-2.65,7.92-3.98.62-.31.23-1.09-.32-1.16-2.96-.39-5.92-.8-8.88-1.18-.84-.11-1.69-.16-2.52.06-1.26.33-2.07,1.35-3.29,1.75-3.79,1.24-7.78,1.59-11.74,1.13l.6.79c.06-.28.11-.56.17-.84.06-.31-.09-.7-.44-.77l-1.14-.24.44.77.68-2.62c.09-.33-.11-.68-.44-.77-1.49-.42-2.98-.83-4.49-1.22-.31-.08-.7.1-.77.44-1.81,8.69-3,17.38-3.02,26.27,0,.35.29.61.62.62l5.66.25c.8.03.8-1.22,0-1.25Z"/>
          </g>
        </g>
        <g>
          <g>
            <path class="cls-1" d="m151.78,36.95c-2.8,0-6.54-.54-9.35-2.95-.95-.81-1.45-2.02-1.39-3.32.07-1.42.8-2.75,1.94-3.54l3.23,4.66c.31-.21.47-.49.49-.83.02-.45-.2-.94-.59-1.28,1.27,1.08,3.44,1.64,6.04,1.58,3-.07,5.51-.97,6.7-2.42.49-.6.69-1.48.52-2.25-.13-.57-.43-.96-.89-1.18-.73-.34-1.87-.36-3.06-.38-.55,0-1.11-.02-1.66-.06-3.75-.25-6.49-2.09-7.14-4.81-.56-2.35.7-4.38,1.11-5.04,1.78-2.86,4.52-5.24,7.73-6.72,1.94-.9,3.69-1.26,5.36-1.12,2.63.22,4.82,1.77,5.58,3.95l-5.36,1.86c.02.07.05.11.06.12-.07-.08-.37-.25-.76-.28-.66-.06-1.49.15-2.51.62-2.21,1.02-4.09,2.65-5.29,4.57-.2.32-.3.54-.35.67.3.19.99.46,1.94.52.45.03.92.04,1.38.04,1.66.03,3.54.06,5.37.92,2.04.95,3.5,2.8,4.01,5.06.56,2.49-.06,5.14-1.67,7.1-3.09,3.76-8.18,4.42-10.95,4.49-.16,0-.33,0-.5,0Z"/>
            <path d="m151.78,36.33c-2.41-.02-4.88-.39-7.04-1.52-1.18-.62-2.49-1.45-2.9-2.79-.5-1.6.16-3.34,1.47-4.33l-.86-.22c1.08,1.55,2.16,3.1,3.23,4.66.24.34.67.41.98.13.98-.89.74-2.09-.11-2.99l-.88.88c2.86,2.27,7.55,2.24,10.84.99,1.31-.5,2.73-1.32,3.29-2.67s.22-3-1.15-3.62c-1.88-.84-4.27-.25-6.26-.64-1.83-.36-3.73-1.27-4.68-2.95-2.19-3.87,2.05-8.33,4.93-10.43,2.07-1.51,4.61-2.82,7.22-2.91s5.02,1.09,5.95,3.51l.44-.77c-1.79.62-3.57,1.24-5.36,1.86-.39.14-.57.54-.37.92l.06.12.86-.86c-1.59-1.13-4.14.34-5.5,1.22-1.7,1.1-3.47,2.7-4.28,4.6-.13.31-.1.67.22.86,1.17.66,2.53.63,3.83.66,1.71.03,3.45.13,5.02.91,2.89,1.43,4.22,4.74,3.59,7.83-1.14,5.62-7.53,7.55-12.54,7.58-.8,0-.81,1.25,0,1.25,5.58-.03,12.45-2.33,13.74-8.5.64-3.02-.3-6.3-2.71-8.3-1.27-1.05-2.84-1.62-4.46-1.85-1.8-.25-4.21.25-5.83-.66l.22.86c.61-1.44,1.84-2.69,3.08-3.62,1.04-.79,3.68-2.68,4.99-1.74.54.39,1.12-.35.86-.86l-.06-.12-.37.92c1.79-.62,3.57-1.24,5.36-1.86.29-.1.56-.44.44-.77-1.36-3.54-5.18-4.91-8.72-4.25-4.08.76-7.88,3.6-10.32,6.88-1.98,2.66-3.08,6.19-.74,9.02,1.08,1.31,2.66,2.13,4.29,2.54.94.24,1.9.34,2.87.38,1.12.04,2.59-.18,3.64.27,1.65.71.44,2.66-.55,3.33-.9.61-1.99.96-3.05,1.16-2.47.48-5.79.49-7.87-1.17-.62-.49-1.45.28-.88.88l.11,1.22.98.13c-1.08-1.55-2.16-3.1-3.23-4.66-.17-.25-.57-.44-.86-.22-2.67,2.03-3.08,5.92-.36,8.1s6.14,2.85,9.48,2.87c.8,0,.81-1.24,0-1.25Z"/>
          </g>
          <g>
            <path class="cls-1" d="m170.96,34.95l-5.67-.07c.07-4.98,0-9.81-.07-14.49-.07-4.71-.13-9.58-.07-14.64l5.65-.27.13,1.23h-.13c-.05,4.67.01,9.21.08,13.6.07,4.71.13,9.58.07,14.64Z"/>
            <path d="m170.96,34.33c-1.89-.02-3.78-.05-5.67-.07l.62.62c.12-9.71-.25-19.42-.13-29.12l-.62.62c1.88-.09,3.77-.18,5.65-.27l-.62-.62.13,1.23.62-.62h-.13c-.34.05-.62.27-.62.64-.09,9.41.26,18.81.14,28.22-.01.8,1.24.81,1.25,0,.12-9.41-.23-18.81-.14-28.22l-.62.62h.13c.31-.05.66-.27.62-.64l-.13-1.23c-.03-.32-.26-.64-.62-.62-1.88.09-3.77.18-5.65.27-.34.02-.62.27-.62.62-.12,9.71.25,19.42.13,29.12,0,.34.29.62.62.62,1.89.02,3.78.05,5.67.07.8.01.81-1.24,0-1.25Z"/>
          </g>
          <g>
            <path class="cls-1" d="m174.41,36.12c-1.51-3.21-2.85-4.55-5.79-7.05-.9-.77-1.37-1.68-1.39-2.7-.02-1.13.53-1.91.74-2.2l6.62-9.23c.62-.87,2.08-2.91,4.59-3.05l.31,5.66c.19-.01.33-.08.37-.1-.07.05-.25.21-.66.79l-5.53,7.7c2.37,2.12,4.17,4.14,5.87,7.76l-5.13,2.41Z"/>
            <path d="m174.95,35.8c-.74-1.54-1.61-2.99-2.76-4.26-.6-.66-1.25-1.28-1.92-1.87-.82-.73-1.89-1.4-2.27-2.49-.64-1.83,1.22-3.69,2.21-5.07l4.07-5.67c1.27-1.76,2.52-3.71,4.91-3.93l-.62-.62c.1,1.89.21,3.77.31,5.66.02.43.38.68.79.6.2-.04.33-.08.52-.16l-.76-.98c-.48.39-.82,1.01-1.18,1.51l-1.92,2.68c-1.06,1.48-2.12,2.96-3.18,4.44-.15.21-.09.59.1.76,2.45,2.21,4.35,4.66,5.77,7.64l.22-.86c-1.71.8-3.42,1.61-5.13,2.41-.73.34-.09,1.42.63,1.08,1.71-.8,3.42-1.61,5.13-2.41.32-.15.36-.57.22-.86-1.47-3.07-3.45-5.61-5.97-7.89l.1.76c1.01-1.41,2.03-2.83,3.04-4.24l1.89-2.63c.34-.48.7-1.12,1.16-1.49.6-.48-.16-1.25-.76-.98l-.22.04.79.6c-.1-1.89-.21-3.77-.31-5.66-.02-.31-.27-.66-.62-.62-3.85.36-5.85,4.36-7.88,7.19l-3.4,4.74c-1.07,1.49-1.77,3.13-.84,4.92.81,1.57,2.61,2.59,3.82,3.85,1.27,1.32,2.21,2.82,2.99,4.47.35.73,1.43.09,1.08-.63Z"/>
          </g>
          <g>
            <path class="cls-1" d="m187.2,37.44c-.13,0-.26,0-.39-.01-2.9-.17-5.49-2.46-6.3-5.55-.7-2.67-.03-5.23.53-6.93.92-2.78,2.28-5.36,4.06-7.68.96-1.26,2.5-3.05,4.75-4.03,2.59-1.14,5.54-.83,7.53.77l-2.4,2.98c.52.75.92,1.56,1.21,2.43l7.17,14.36-5.07,2.53-3.08-6.16c-.07.19-.15.37-.22.56-1.8,4.36-4.56,6.74-7.79,6.74Zm2.96-17.42c-.18.21-.37.44-.56.69-1.39,1.82-2.46,3.84-3.18,6.02-.52,1.59-.66,2.8-.42,3.72.19.73.76,1.3,1.15,1.33.73.04,1.81-1.29,2.61-3.23.89-2.15,1.7-4.95,1.13-7.08l-.72-1.44Zm1.81-1.52c-.18.09-.37.2-.55.33l.55-.33Z"/>
            <g>
              <path d="m187.2,36.82c-2.97-.09-5.35-2.28-6.09-5.11-.84-3.2.33-6.65,1.71-9.53,2.37-4.96,8.21-12.21,14.25-7.64l-.13-.98-2.4,2.98c-.17.21-.26.51-.1.76.79,1.2,1.31,2.63,1.96,3.92l2.46,4.93c1.32,2.64,2.64,5.29,3.96,7.93l.22-.86-5.07,2.53.86.22-3.08-6.16c-.27-.53-.96-.3-1.14.15-1.28,3.24-3.54,6.76-7.41,6.84-.8.02-.81,1.27,0,1.25,4.48-.1,7.12-3.97,8.62-7.76l-1.14.15,3.08,6.16c.16.32.57.37.86.22,1.69-.84,3.38-1.69,5.07-2.53.32-.16.37-.57.22-.86-1.32-2.64-2.64-5.29-3.96-7.93l-2.46-4.93c-.65-1.3-1.16-2.71-1.96-3.92l-.1.76,2.4-2.98c.27-.34.22-.72-.13-.98-2.94-2.22-6.96-1.86-9.88.21s-5.01,5.41-6.43,8.63-2.56,7.21-1.15,10.74c1.16,2.9,3.82,4.93,6.96,5.02.8.02.8-1.23,0-1.25Z"/>
              <path d="m189.72,19.58c-1.5,1.75-2.67,3.77-3.52,5.91-.67,1.7-1.57,4.22-.45,5.94.42.64,1.09,1.15,1.88.89s1.3-1,1.71-1.63c1.2-1.82,1.96-4.16,2.25-6.31.14-1.02.24-2.28-.18-3.25-.21-.49-.48-.96-.71-1.43-.36-.72-1.44-.09-1.08.63l.53,1.07c.26.52.3,1.07.29,1.67,0,1.8-.59,3.6-1.27,5.24-.33.79-.73,1.61-1.29,2.26-.13.15-.39.5-.61.54-.16.03-.26-.09-.39-.25-.45-.58-.42-1.42-.33-2.11.13-.94.44-1.85.78-2.74.76-2,1.87-3.92,3.27-5.55.52-.61-.36-1.5-.88-.88Z"/>
              <path d="m191.66,17.96c-.19.1-.37.21-.55.33-.07.04-.13.09-.18.16-.06.06-.09.13-.11.21-.03.08-.03.17-.01.25,0,.08.03.16.07.23l.1.13c.08.08.17.13.28.16l.17.02c.11,0,.22-.03.32-.09.16-.1.32-.19.48-.29l.07-.04c.07-.04.13-.09.18-.16.06-.06.09-.13.11-.21.03-.08.03-.17.01-.25,0-.08-.03-.16-.07-.23l-.1-.13c-.08-.08-.17-.13-.28-.16l-.17-.02c-.11,0-.22.03-.32.09-.16.1-.32.19-.48.29l-.07.04.63,1.08c.17-.12.36-.24.55-.33.07-.04.13-.09.18-.16.06-.06.09-.13.11-.21.03-.08.03-.17.01-.25,0-.08-.03-.16-.07-.23l-.1-.13c-.08-.08-.17-.13-.28-.16l-.17-.02c-.11,0-.22.03-.32.09Z"/>
            </g>
          </g>
          <g>
            <path class="cls-1" d="m203.12,35.2c-.58-9.97-1.22-20.15-1.9-30.25l5.66-.38c.68,10.12,1.33,20.31,1.9,30.3l-5.66.33Z"/>
            <path d="m203.74,35.2c-.59-10.09-1.22-20.17-1.9-30.25l-.62.62c1.89-.13,3.77-.26,5.66-.38l-.62-.62c.68,10.1,1.32,20.2,1.9,30.3l.62-.62c-1.89.11-3.77.22-5.66.33-.8.05-.8,1.3,0,1.25,1.89-.11,3.77-.22,5.66-.33.32-.02.65-.27.62-.62-.59-10.1-1.22-20.2-1.9-30.3-.02-.32-.27-.65-.62-.62-1.89.13-3.77.26-5.66.38-.32.02-.65.27-.62.62.68,10.08,1.31,20.16,1.9,30.25.05.8,1.3.8,1.25,0Z"/>
          </g>
          <g>
            <rect class="cls-1" x="199.69" y="17.74" width="11.48" height="5.67" transform="translate(2.09 56.31) rotate(-15.69)"/>
            <path d="m201.27,24.69c-.51-1.82-1.02-3.64-1.53-5.46l-.44.77c3.22-.9,6.44-1.81,9.66-2.71l1.4-.39-.77-.44c.51,1.82,1.02,3.64,1.53,5.46l.44-.77c-3.22.9-6.44,1.81-9.66,2.71l-1.4.39c-.77.22-.44,1.42.33,1.21,3.22-.9,6.44-1.81,9.66-2.71l1.4-.39c.32-.09.53-.44.44-.77-.51-1.82-1.02-3.64-1.53-5.46-.09-.32-.44-.53-.77-.44-3.22.9-6.44,1.81-9.66,2.71l-1.4.39c-.32.09-.53.44-.44.77.51,1.82,1.02,3.64,1.53,5.46.22.77,1.42.44,1.21-.33Z"/>
          </g>
          <g>
            <path class="cls-1" d="m213.96,37.91c-1.1,0-2.12-.47-2.84-1.3-.77-.89-1.08-2.06-.84-3.22.21-1.03.43-2.03.65-3.02l-.69,1.01-1.25-2.28c-.05-1.45.67-2.37,3.41-4.62.16-.6.31-1.19.47-1.79.96-3.67,1.96-7.45,2.74-11.53-.21-1.12.16-2.05.76-2.68.78-1.05,2.1-1.47,3.37-1.04,2.63.91,3.94,2.77,4.98,4.26.62.88,1.15,1.63,1.88,2.17l2.94,2.13-2.78,2.34c-1.9,1.6-3.07,2.92-4.3,4.33-1.32,1.5-2.68,3.05-4.91,4.92l-.14.12c-.29,1.15-.58,2.31-.86,3.5,4.47-1.95,8.16-3.32,11.73-4.37l1.6,5.44c-3.87,1.14-7.91,2.69-13.11,5.04-1.03.47-1.9.57-2.61.61-.07,0-.15,0-.22,0Zm6.52-22.38c-.09.39-.18.78-.26,1.17.21-.21.42-.43.64-.66-.13-.17-.26-.34-.38-.51Zm-3.45-7.58s-.04.02-.06.03c.02-.01.04-.02.06-.03Z"/>
            <g>
              <path d="m213.96,37.28c-1.49-.07-2.77-1.03-3.08-2.53-.27-1.31.36-2.94.65-4.21.16-.71-.74-1.06-1.14-.48l-.69,1.01h1.08l-.62-1.14c-.14-.26-.31-.51-.43-.78-.06-.14-.13-.44-.11-.24-.1-1.41,1.61-2.61,2.53-3.4.32-.28.65-.49.86-.86.27-.47.33-1.26.47-1.79.3-1.14.6-2.28.89-3.42.59-2.3,1.14-4.61,1.61-6.94.09-.44.22-.89.25-1.34.04-.68-.12-1.19.27-1.84.67-1.12,1.8-1.66,3.07-1.28,1.94.58,3.32,2.16,4.45,3.75.83,1.17,1.65,2.17,2.81,3.01l2.41,1.74-.13-.98c-2.16,1.82-4.32,3.59-6.21,5.69-1.34,1.49-2.63,3.02-4.09,4.41-.57.54-1.5,1.07-1.91,1.74-.27.43-.32,1.17-.44,1.67-.16.66-.32,1.32-.48,1.98-.13.57.43.92.92.71,3.78-1.64,7.63-3.13,11.58-4.31l-.77-.44c.53,1.81,1.07,3.62,1.6,5.44l.44-.77c-2.49.74-4.95,1.61-7.36,2.58-1.25.5-2.5,1.02-3.74,1.56-1.53.67-2.97,1.44-4.67,1.49-.8.02-.81,1.27,0,1.25,2.93-.08,5.7-1.87,8.36-2.94s5.12-1.95,7.74-2.73c.32-.1.53-.44.44-.77-.53-1.81-1.07-3.62-1.6-5.44-.09-.32-.44-.53-.77-.44-4.06,1.21-8,2.75-11.88,4.44l.92.71c.14-.59.28-1.17.42-1.76.1-.4.14-1.18.34-1.52s.81-.69,1.12-.97c.41-.37.81-.75,1.21-1.14,1.37-1.36,2.59-2.84,3.89-4.26,1.78-1.94,3.83-3.58,5.84-5.28.34-.28.17-.77-.13-.98l-2.15-1.55c-1.12-.81-1.89-1.73-2.7-2.86-1.52-2.12-4.21-5.04-7.16-4.29-1.33.34-2.5,1.56-2.83,2.89-.24.97-.15,1.99-.36,2.98-.24,1.14-.49,2.27-.76,3.4-.48,2.03-1.01,4.05-1.54,6.07-.31,1.17-.49,1.97-1.43,2.79-.59.52-1.17,1.05-1.66,1.66-.58.73-1.15,1.83-.86,2.79.24.81.88,1.62,1.28,2.35.24.44.82.37,1.08,0l.69-1.01-1.14-.48c-.42,1.84-1.2,3.92-.36,5.75.73,1.61,2.27,2.5,3.99,2.58.8.04.8-1.21,0-1.25Z"/>
              <path d="m219.88,15.36c-.09.39-.18.78-.26,1.17-.03.14-.02.27.03.41.05.12.14.24.26.3.24.13.56.11.76-.1.21-.22.43-.44.64-.66.1-.1.15-.22.17-.36.02-.12,0-.29-.07-.4-.13-.17-.26-.34-.38-.51-.1-.14-.21-.24-.37-.29-.15-.04-.35-.02-.48.06s-.25.21-.29.37-.03.35.06.48c.12.17.25.34.38.51l.1-.76c-.22.22-.43.43-.64.66l1.04.61c.09-.39.18-.78.26-1.17.04-.16.02-.33-.06-.48-.08-.13-.22-.25-.37-.29-.16-.04-.34-.03-.48.06-.13.09-.25.21-.29.37Z"/>
              <path d="m216.71,7.41s-.04.02-.06.03c-.07.04-.13.09-.18.16-.06.06-.09.13-.11.21-.03.08-.03.17-.01.25,0,.08.03.16.07.23l.1.13c.08.08.17.13.28.16l.17.02c.11,0,.22-.03.32-.09.02-.01.04-.02.06-.03.07-.04.13-.09.18-.16.06-.06.09-.13.11-.21.03-.08.03-.17.01-.25,0-.08-.03-.16-.07-.23l-.1-.13c-.08-.08-.17-.13-.28-.16l-.17-.02c-.11,0-.22.03-.32.09-.02.01-.04.02-.06.03-.07.04-.13.09-.18.16-.06.06-.09.13-.11.21-.03.08-.03.17-.01.25,0,.08.03.16.07.23l.1.13c.08.08.17.13.28.16l.17.02c.11,0,.22-.03.32-.09.02-.01.04-.02.06-.03.07-.04.13-.09.18-.16.06-.06.09-.13.11-.21.03-.08.03-.17.01-.25,0-.08-.03-.16-.07-.23l-.1-.13c-.08-.08-.17-.13-.28-.16l-.17-.02c-.11,0-.22.03-.32.09Z"/>
            </g>
          </g>
          <g>
            <path class="cls-1" d="m236.73,42.63l-5.23-5.71c-1.22-1.33-1.55-3.34-.88-5.14l-1.06-26.44,5.66-.23.42,10.49c2.83,3.38,7.07,7.62,10.74,10.73l7.31,6.2-9.5-1.22c-2.57-.33-5.28.3-7.43,1.75-.16.11-.29.21-.4.29l.37,9.29Zm-.73-18.24l.1,2.59c.59-.26,1.2-.49,1.82-.68-.65-.63-1.3-1.27-1.93-1.91Z"/>
            <g>
              <path d="m237.17,42.19c-1.71-1.86-3.47-3.69-5.13-5.59-.66-.75-1.06-1.6-1.13-2.61-.06-.81.27-1.5.33-2.28.05-.59-.05-1.22-.07-1.81-.25-6.26-.5-12.52-.75-18.77-.08-1.92-.15-3.85-.23-5.77l-.62.62,5.66-.23-.62-.62c.07,1.75.14,3.5.21,5.24l.14,3.56c.02.53-.05,1.17.07,1.69.14.62.74,1.1,1.15,1.56.75.86,1.52,1.69,2.31,2.52,1.52,1.6,3.09,3.15,4.71,4.65s3.44,3.03,5.19,4.52c1.62,1.37,3.24,2.75,4.86,4.12l.44-1.07c-3.14-.4-6.28-.85-9.43-1.22-1.38-.16-2.76-.09-4.11.22-.78.18-1.55.45-2.28.8-.56.26-1.65.69-2,1.25-.23.37-.11.9-.1,1.31l.12,2.97c.07,1.8.14,3.59.22,5.39.03.8,1.28.81,1.25,0-.12-3.1-.25-6.19-.37-9.29l-.31.54c2.15-1.62,4.86-2.25,7.51-1.95.83.09,1.67.21,2.5.32,2.33.3,4.67.6,7,.9.53.07.83-.73.44-1.07-2.74-2.32-5.51-4.61-8.21-6.97-3.23-2.83-6.3-5.87-9.12-9.11-.07-.08-.68-.72-.53-.41-.02-.05,0-.12,0-.17-.08-.28-.03-.68-.04-.97l-.13-3.22c-.08-2.04-.16-4.08-.25-6.11-.01-.33-.28-.64-.62-.62l-5.66.23c-.33.01-.64.28-.62.62.2,5.07.41,10.14.61,15.21l.36,9.06c.03.66.15,1.4.08,2.06-.05.52-.28,1.03-.32,1.57-.1,1.31.26,2.65,1.06,3.71,1.63,2.18,3.72,4.1,5.56,6.11.54.59,1.43-.29.88-.88Z"/>
              <path d="m235.38,24.39c.03.75.06,1.51.09,2.26v.33c.02.22.13.42.32.54.21.12.42.09.63,0,.04-.02.08-.03.11-.05.03-.01.14-.07.01,0,.07-.03.14-.06.21-.09.15-.06.29-.12.44-.17.3-.11.6-.21.9-.3.44-.14.62-.71.28-1.04-.65-.63-1.29-1.27-1.93-1.91-.23-.23-.66-.25-.88,0s-.25.63,0,.88c.64.65,1.28,1.28,1.93,1.91l.28-1.04c-.67.21-1.33.46-1.97.74l.94.54c-.03-.75-.06-1.51-.09-2.26v-.33c-.03-.33-.29-.64-.64-.62-.33.01-.64.28-.62.62Z"/>
            </g>
          </g>
          <g>
            <path class="cls-1" d="m252.23,37.5c-1.7,0-3.41-.74-4.68-1.86-1.9-1.67-2.66-3.97-3.12-5.79h0c-.25-.69-.46-1.37-.65-1.99l.25-.08c-.21-1.58-.2-3.41.52-5.19.42-1.02,1.05-1.99,1.94-2.96,2.73-2.97,6.76-4.7,10.83-4.61,1.13.02,2.61.46,3.58,1.07.67.41,1.09.86,1.45,1.53.98,1.82,1.38,3.84,1.17,5.85-.47,4.45-2.17,8.42-4.79,11.16-1.22,1.27-2.47,2.08-3.82,2.46-.42.12-.84.19-1.27.23-.46.12-.94.18-1.41.18Zm-2.37-9.31c.34.89.73,1.71,1.26,2.35.65.78,1.62,1.26,2.25,1.09.24-.07.65-.28,1.27-.93,1.76-1.84,2.92-4.62,3.25-7.83.07-.7-.03-1.42-.3-2.1-.15-.04-.3-.08-.39-.09-2.45-.04-4.88.99-6.53,2.78-.43.47-.71.88-.87,1.27-.32.78-.3,1.89.07,3.46Z"/>
            <g>
              <path d="m252.23,36.88c-2.47-.08-4.61-1.54-5.84-3.64-.99-1.68-1.43-3.69-2.01-5.54l-.44.77.25-.08c.24-.07.49-.33.46-.6-.26-2.11-.08-4.22,1.05-6.07,1.06-1.75,2.68-3.17,4.43-4.19s3.74-1.66,5.76-1.83c1.85-.15,4.21.1,5.51,1.61,1.45,1.7,1.72,4.42,1.46,6.54s-.8,4.12-1.67,6.01c-1.72,3.73-4.62,6.89-8.96,7.02-.8.03-.81,1.28,0,1.25,3.8-.12,6.63-2.16,8.7-5.25s3.34-6.97,3.28-10.61c-.03-1.87-.54-3.95-1.64-5.49-.93-1.29-2.57-1.97-4.09-2.25-3.45-.64-7.39.68-10.18,2.68-3.55,2.55-5.44,6.18-4.9,10.57l.46-.6-.25.08c-.31.1-.54.44-.44.77.71,2.28,1.26,4.76,2.72,6.72s3.8,3.31,6.34,3.39c.8.02.8-1.23,0-1.25Z"/>
              <path d="m249.26,28.36c.43,1.12.95,2.31,1.89,3.1.67.56,1.62,1.05,2.51.73s1.56-1.14,2.11-1.85c.7-.9,1.23-1.89,1.66-2.95s.75-2.25.94-3.42c.1-.61.2-1.24.15-1.87-.04-.51-.12-1.39-.5-1.77-.36-.36-1.08-.28-1.53-.26-.63.04-1.27.14-1.88.31-1.11.3-2.18.81-3.1,1.5-.98.73-2.02,1.69-2.39,2.89s-.11,2.44.15,3.58c.18.78,1.38.45,1.21-.33-.19-.86-.4-1.81-.21-2.69s.97-1.63,1.66-2.2c.76-.63,1.66-1.11,2.6-1.42.85-.28,2.01-.59,2.9-.34l-.44-.44c.55,1.45.2,3.02-.2,4.47-.36,1.3-.88,2.54-1.63,3.66-.35.53-.76,1.02-1.22,1.46-.29.27-.59.55-.98.5-1.34-.19-2.07-1.92-2.48-3.01-.29-.74-1.5-.42-1.21.33Z"/>
            </g>
          </g>
          <g>
            <path class="cls-1" d="m287.57,35.16c-.23-8.08-.07-17.46.42-25.11l5.66.37c-.48,7.48-.64,16.67-.41,24.58l-5.67.16Z"/>
            <path d="m288.19,35.16c-.23-8.37-.11-16.75.42-25.11l-.62.62c1.89.12,3.77.24,5.66.37l-.62-.62c-.52,8.18-.64,16.39-.41,24.58l.62-.62-5.67.16c-.8.02-.81,1.27,0,1.25l5.67-.16c.33,0,.63-.28.62-.62-.22-8.19-.11-16.4.41-24.58.02-.35-.31-.6-.62-.62-1.89-.12-3.77-.24-5.66-.37-.35-.02-.6.31-.62.62-.53,8.35-.65,16.74-.42,25.11.02.8,1.27.81,1.25,0Z"/>
          </g>
          <g>
            <path class="cls-1" d="m288.98,35.79c-.99-.57-1.29-.83-1.4-2.56h-.02s0-.17,0-.39c-.03-.72-.03-1.66-.04-2.9-.01-2.1-.02-4.99-.01-8.15,0-1.9,1.11-3.71,3.12-5.09,1.28-.88,2.64-1.34,3.84-1.74l5.32-1.8,1.81,5.37-5.32,1.8c-.93.32-1.82.61-2.44,1.04-.38.26-.58.48-.67.59,0,.76,0,1.5,0,2.21h0c.03,3.29.04,5.58.05,7.04,0,.68,0,1.25,0,1.73,0,.12,0,.21,0,.25h-.02c-.07,1.41-.35,1.99-1.39,2.59h-2.84Z"/>
            <path d="m289.3,35.25c-.88-.51-1.01-1.01-1.09-2.02-.02-.34-.27-.62-.62-.62h-.02l.62.62c.03-2.66-.05-5.32-.05-7.98,0-1.49-.23-3.18.17-4.63s1.56-2.68,2.82-3.5c1.56-1.02,3.4-1.53,5.15-2.12l3.69-1.24-.77-.44c.6,1.79,1.21,3.58,1.81,5.37l.44-.77-4.71,1.59c-.98.33-2.02.61-2.92,1.14-.38.22-.96.58-1.17.99-.32.63-.09,1.82-.09,2.52,0,.34.29.62.62.62h0l-.62-.62c.02,3.01-.02,6.02.04,9.02l.62-.62h-.02c-.35.02-.6.27-.62.63-.05.69-.11,1.35-.7,1.79-.25.18-.28.17-.74.17h-2.17c-.8,0-.81,1.26,0,1.26.91,0,1.94.15,2.83,0,1.49-.26,1.94-1.95,2.02-3.21l-.62.62h.02c.33-.02.63-.27.62-.63-.06-3-.02-6.02-.04-9.02,0-.34-.28-.62-.62-.62h0l.62.62c0-.53-.15-1.69.04-2.01.37-.62,1.58-.88,2.22-1.1.55-.19,1.1-.37,1.65-.56l4.07-1.37c.31-.1.55-.43.44-.77-.6-1.79-1.21-3.58-1.81-5.37-.1-.31-.43-.55-.77-.44-3.23,1.09-7.19,1.91-9.9,4.04-1.06.83-1.94,1.87-2.44,3.13-.57,1.42-.41,2.99-.41,4.49,0,3.01.09,6.02.05,9.03,0,.34.29.62.62.62h.02l-.62-.62c.1,1.45.42,2.35,1.71,3.1.7.41,1.33-.67.63-1.08Z"/>
          </g>
          <g>
            <path class="cls-1" d="m269.04,37.87c-.15,0-.3,0-.44-.02-2.34-.22-4.11-2.1-4.75-5.04-1-4.6-.08-9.49,2.51-13.42,1.4-2.11,3.06-3.48,4.95-4.06,3.58-1.09,7.61.97,8.81,4.52l-.44.15c.73,2.25,2.26,4.52,4.66,6.9,1.15,1.14,1.34,1.27,1.44,1.34.44.3.83.59,2.23,1.98l-3.97,4.04c-1.15-1.13-1.34-1.26-1.44-1.33-.45-.3-.82-.59-2.24-2-.95-.95-1.81-1.89-2.56-2.84-.99,2.61-2.39,5.06-4.19,7.23-1.4,1.7-2.93,2.55-4.56,2.55Zm4.23-17.16c-.11,0-.21.01-.31.04-.58.18-1.23.79-1.87,1.76-1.72,2.6-2.36,5.97-1.72,9.02,2.48-3.07,3.98-6.84,4.32-10.76-.14-.04-.28-.06-.42-.06Z"/>
            <g>
              <path d="m269.04,37.25c-3.39-.16-4.59-3.5-4.88-6.42-.33-3.28.3-6.64,1.82-9.56,1.4-2.7,3.67-5.38,6.92-5.59,2.88-.18,5.62,1.65,6.61,4.34l.44-.77-.44.15c-.31.1-.55.43-.44.77.97,2.85,2.84,5.22,4.97,7.32,1.13,1.12,2.39,2.06,3.53,3.17v-.88c-1.32,1.35-2.65,2.7-3.97,4.04h.88c-2.11-2.06-4.37-3.83-6.24-6.17-.33-.4-.89-.11-1.04.28-.79,2.04-1.82,3.97-3.09,5.75s-2.76,3.5-5.05,3.58c-.8.03-.81,1.28,0,1.25,2.4-.08,4.11-1.57,5.53-3.39,1.62-2.08,2.87-4.39,3.82-6.85l-1.04.28c1.89,2.35,4.17,4.14,6.24,6.17.24.23.64.24.88,0,1.32-1.35,2.65-2.7,3.97-4.04.23-.24.24-.65,0-.88-3.09-3.02-6.68-5.53-8.17-9.93l-.44.77.44-.15c.3-.1.56-.44.44-.77-1.83-5-8.01-6.83-12.23-3.56-4.92,3.8-6.73,11.56-5.11,17.39.76,2.74,2.73,4.84,5.66,4.98.8.04.8-1.21,0-1.25Z"/>
              <path d="m273.27,20.09c-1.04.07-1.79.84-2.38,1.63-.7.93-1.23,1.99-1.63,3.08-.8,2.2-.96,4.61-.49,6.9.09.43.76.64,1.04.28,2.58-3.23,4.13-7.09,4.5-11.2.02-.26-.21-.54-.46-.6-.19-.05-.38-.07-.58-.08-.8-.04-.8,1.21,0,1.25.09,0,.17.01.25.04l-.46-.6c-.34,3.75-1.79,7.37-4.14,10.32l1.04.28c-.38-1.9-.26-3.88.32-5.73.29-.91.68-1.78,1.19-2.59.36-.57,1.01-1.66,1.79-1.72s.8-1.3,0-1.25Z"/>
            </g>
          </g>
          <g>
            <path class="cls-1" d="m312.38,38.58l-4.58-1.55c-.49-.17-1.28-.54-1.94-1.35-2.99-.27-6.26-.32-7.94,1.35l-4.47-3.39c3.04-5.43,7.6-11.93,12.32-17.56l.85-11.52,5.65.42-1.94,26.35c0,.1-.01.2-.01.28.81.79,1.09,1.69,1.18,2.21l.88,4.75Zm-5.83-2.76h0Zm-3.41-5.94c.54,0,1.07.02,1.61.04l.27-3.67c-.89,1.21-1.74,2.43-2.56,3.63.23,0,.45,0,.68,0Z"/>
            <g>
              <path d="m312.55,37.97c-1.71-.58-3.81-.95-5.34-1.92-.38-.25-.65-.7-1.04-.91-.31-.17-.76-.13-1.1-.15-1.04-.07-2.08-.12-3.12-.04-1.64.12-3.24.51-4.48,1.64l.76-.1c-1.49-1.13-2.98-2.26-4.47-3.39l.22.86c2.09-3.72,4.46-7.28,6.98-10.73,1.41-1.93,2.87-3.81,4.38-5.66.63-.77,1.02-1.14,1.09-2.06.27-3.65.54-7.29.8-10.94l-.62.62c1.88.14,3.77.28,5.65.42l-.62-.62c-.31,4.18-.62,8.37-.92,12.55-.34,4.56-.85,9.15-1.01,13.72-.03.75.4.95.77,1.58.34.57.43,1.21.55,1.85.25,1.35.5,2.7.75,4.05.15.79,1.35.46,1.21-.33-.22-1.18-.44-2.37-.66-3.55-.07-.4-.13-.8-.22-1.2-.08-.35-.18-.68-.33-1.01-.19-.43-.7-.87-.82-1.32-.08-.28.06-.75.08-1.04l.2-2.76c.43-5.87.86-11.74,1.3-17.61.12-1.65.24-3.29.36-4.94.03-.35-.31-.6-.62-.62-1.88-.14-3.77-.28-5.65-.42-.35-.03-.6.31-.62.62l-.8,10.82c-.01.17.02.48-.05.64-.04.09-.04-.1-.25.14-.35.39-.67.82-1,1.23-1.37,1.7-2.71,3.44-4,5.21-2.52,3.45-4.89,7.01-6.98,10.73-.18.32-.05.65.22.86,1.49,1.13,2.98,2.26,4.47,3.39.22.17.57.07.76-.1,1.36-1.25,3.38-1.34,5.14-1.31.96.02,1.76-.05,2.51.55.51.4,1.03.7,1.64.92,1.51.56,3.05,1.03,4.57,1.55.76.26,1.09-.95.33-1.21Z"/>
              <path d="m306.55,36.44c.8,0,.81-1.25,0-1.25s-.81,1.25,0,1.25Z"/>
              <path d="m303.14,30.5c.54,0,1.07.02,1.61.04.36.02.6-.3.62-.62.08-1.07.16-2.14.24-3.21l.03-.46c.02-.26-.21-.55-.46-.6-.29-.07-.53.05-.71.29-.87,1.2-1.73,2.41-2.56,3.63-.27.39.09.95.54.94.23,0,.45,0,.68,0,.33,0,.64-.29.62-.62s-.27-.63-.62-.62c-.23,0-.45,0-.68,0l.54.94c.83-1.23,1.69-2.44,2.56-3.63l-1.16-.32c-.08,1.07-.16,2.14-.24,3.21l-.03.46.62-.62c-.54-.03-1.07-.04-1.61-.04-.33,0-.64.29-.62.62s.27.62.62.62Z"/>
            </g>
          </g>
          <g>
            <path class="cls-1" d="m316.23,37.35c-.07,0-.15,0-.22,0-2.21-.11-4.11-1.84-4.62-4.2-.35-1.61,0-3.11.24-4.2l5.53,1.25c-.06.27-.13.56-.18.84,2.27-1.71,4.22-3.89,5.66-6.33.75-1.27,1.12-2.25,1.14-3.07.02-.65-.26-1.24-.53-1.39-.42-.22-1.43-.1-2.33,0-.34.04-.68.08-1.02.11-3.48.31-6.23-1.09-7.18-3.65-.58-1.55-.29-3.03-.02-4,.68-2.51,2.05-4.78,3.95-6.56,2-1.87,4.35-2.83,6.65-2.81,3.25.08,6.04,2.41,6.48,5.4l-5.61.82c-.02-.15-.48-.54-1.02-.56-.8-.04-1.74.45-2.63,1.28-1.12,1.04-1.95,2.43-2.35,3.9-.05.18-.08.32-.09.41.25.08.71.16,1.33.11.28-.03.57-.06.85-.09,1.63-.19,3.66-.43,5.64.61,2.25,1.19,3.65,3.77,3.56,6.59-.08,2.37-1.14,4.43-1.93,5.76-1.96,3.31-4.65,6.23-7.78,8.44-.56.4-1.85,1.31-3.51,1.31Zm-.24-5.63h0Z"/>
            <g>
              <path d="m316.23,36.73c-1.56-.04-2.9-.92-3.68-2.26-.96-1.66-.73-3.57-.32-5.35l-.77.44c1.84.42,3.69.84,5.53,1.25l-.44-.77c-.07.28-.12.56-.18.84-.09.47.44,1.07.92.71,2.73-2.1,5.32-4.87,6.67-8.09.43-1.04.77-2.52-.05-3.47s-2.6-.41-3.66-.3c-3.71.37-7.81-1.43-7.16-5.83.55-3.71,3.2-7.41,6.57-9.06,3.76-1.84,8.74-.38,9.53,4.1l.44-.77c-1.87.27-3.74.55-5.61.82l.71.29c-.97-1.55-3.02-.7-4.13.17-1.55,1.22-2.73,3.08-3.11,5.02-.06.33.09.68.44.77,1.26.33,2.55-.03,3.83-.11,1.73-.1,3.49.2,4.85,1.35,2.42,2.06,2.66,5.46,1.63,8.29s-2.88,5.24-4.87,7.34c-1.81,1.91-4.31,4.51-7.12,4.64-.8.04-.81,1.29,0,1.25,3.08-.14,5.67-2.62,7.71-4.7,2.35-2.4,4.56-5.34,5.61-8.56.98-3,.58-6.45-1.7-8.77-1.1-1.11-2.54-1.79-4.08-2.01-.93-.13-1.86-.1-2.8,0s-1.84.32-2.73.09l.44.77c.2-1.03.65-2.01,1.25-2.86.41-.58,2.88-3.34,3.7-2.03.16.26.42.33.71.29,1.87-.27,3.74-.55,5.61-.82.36-.05.49-.47.44-.77-.55-3.13-3.24-5.44-6.37-5.81-3.77-.44-7.25,1.88-9.45,4.76-2.04,2.67-3.82,6.81-2.14,10.07,1.55,3,5.08,3.66,8.15,3.32.5-.05,1-.13,1.5-.16.82-.04,1.14.12,1.05,1.07-.1,1.16-.85,2.28-1.46,3.24-1.34,2.08-3.05,3.91-5.01,5.42l.92.71c.05-.28.11-.56.18-.84.07-.32-.09-.69-.44-.77-1.84-.42-3.69-.84-5.53-1.25-.32-.07-.69.09-.77.44-.5,2.24-.68,4.6.63,6.61,1.02,1.57,2.71,2.54,4.58,2.59.8.02.8-1.23,0-1.25Z"/>
              <path d="m315.99,32.34c.8,0,.81-1.25,0-1.25s-.81,1.25,0,1.25Z"/>
            </g>
          </g>
        </g>
      </g>
    </g>
  </g>
</svg>